#!OML:ASF I:\Actors\actors\Patient Classification 2\Patient 1\Session 1\actor1.ASF
:FULLY-SPECIFIED
:DEGREES
463
root -0.933627 18.602 5.47994 -2.87187 -11.4662 -4.69047
lowerback 16.1563 -1.42544 2.3468
upperback 5.71127 -1.4342 2.87917
thorax -2.95655 -0.736687 1.96491
lowerneck 1.82472 -8.21502 -15.1473
upperneck 41.5051 -9.99001 -2.65112
head 15.135 -6.9963 0.280039
rclavicle 4.01545e-014 -4.53229e-014
rhumerus -22.8921 -23.1298 -3.48626
rradius 110.271
rwrist 7.11646
rhand -36.6451 -21.8848
rfingers 7.12502
rthumb -9.73226 -51.64
lclavicle 4.01545e-014 -4.53229e-014
lhumerus -17.566 12.1753 17.2364
lradius 105.413
lwrist 22.9809
lhand -17.3044 -36.1101
lfingers 7.12502
lthumb 8.94166 -6.31961
rfemur 9.73924 8.4427 20.3061
rtibia 1.03368e-014
rfoot -16.5795 -11.5836
rtoes -18.0558
lfemur -1.59503 1.38084 -8.63396
ltibia 26.2126
lfoot -22.2767 11.6859
ltoes -57.4087
464
root -0.937787 18.6022 5.47549 -2.83683 -11.5353 -4.7129
lowerback 16.1621 -1.42408 2.24137
upperback 5.7349 -1.44812 2.92125
thorax -2.93079 -0.74493 2.07115
lowerneck 2.13555 -8.39129 -15.4263
upperneck 41.3171 -10.3387 -2.48971
head 15.0398 -7.16412 0.36565
rclavicle 1.32192e-014 -2.38542e-015
rhumerus -21.6475 -23.3172 -3.20483
rradius 110.779
rwrist 7.55182
rhand -37.3668 -21.8273
rfingers 7.12502
rthumb -10.4285 -51.5486
lclavicle 1.32192e-014 -2.38542e-015
lhumerus -16.8661 12.7151 16.1263
lradius 106.46
lwrist 22.7861
lhand -17.223 -36.5933
lfingers 7.12502
lthumb 9.02013 -6.80615
rfemur 9.69472 8.54978 20.3522
rtibia 4.77083e-015
rfoot -16.6205 -11.6028
rtoes -18.0028
lfemur -1.59991 1.40795 -8.59005
ltibia 26.1812
lfoot -22.2705 11.7227
ltoes -57.4485
465
root -0.941454 18.6017 5.47145 -2.81386 -11.5853 -4.78567
lowerback 16.1254 -1.43645 2.16991
upperback 5.80432 -1.47838 2.97296
thorax -2.83414 -0.761315 2.16917
lowerneck 2.43195 -8.54431 -15.5877
upperneck 41.0629 -10.6517 -2.35523
head 14.8985 -7.30067 0.430255
rclavicle 8.54774e-015 -5.1684e-015
rhumerus -20.4729 -23.5295 -3.00161
rradius 111.268
rwrist 8.09254
rhand -38.0816 -21.9446
rfingers 7.12502
rthumb -11.1179 -51.6301
lclavicle 8.54774e-015 -5.1684e-015
lhumerus -16.236 13.293 15.0806
lradius 107.378
lwrist 22.6207
lhand -17.5485 -37.2681
lfingers 7.12502
lthumb 8.70607 -7.46769
rfemur 9.67037 8.63503 20.4514
rtibia -4.77083e-015
rfoot -16.6686 -11.6004
rtoes -17.7256
lfemur -1.59441 1.37656 -8.49634
ltibia 26.1641
lfoot -22.2935 11.7212
ltoes -57.3898
466
root -0.943923 18.6009 5.4686 -2.79442 -11.6261 -4.8532
lowerback 16.1064 -1.44317 2.13874
upperback 5.85788 -1.49398 3.01283
thorax -2.76514 -0.770024 2.23006
lowerneck 2.60657 -8.69174 -15.6756
upperneck 40.9678 -10.9347 -2.24866
head 14.8538 -7.42122 0.46196
rclavicle 1.35174e-014 -1.59028e-014
rhumerus -19.4057 -23.7282 -2.79226
rradius 111.779
rwrist 8.46514
rhand -38.401 -21.7935
rfingers 7.12502
rthumb -11.426 -51.4622
lclavicle 1.35174e-014 -1.59028e-014
lhumerus -15.5485 13.9071 14.1428
lradius 108.268
lwrist 22.3435
lhand -17.8383 -37.5571
lfingers 7.12502
lthumb 8.42641 -7.74515
rfemur 9.64644 8.71144 20.5457
rtibia 4.13472e-014
rfoot -16.6528 -11.6427
rtoes -17.8405
lfemur -1.58911 1.35285 -8.41234
ltibia 26.1503
lfoot -22.3137 11.7177
ltoes -57.3349
467
root -0.9469 18.6005 5.46621 -2.7696 -11.6546 -4.87092
lowerback 16.1181 -1.43938 2.09702
upperback 5.86973 -1.49503 3.02633
thorax -2.7574 -0.771165 2.26821
lowerneck 2.70806 -8.79647 -15.6218
upperneck 40.9949 -11.1375 -2.19959
head 14.8605 -7.49738 0.450653
rclavicle -2.98177e-014 3.57812e-015
rhumerus -18.4273 -23.9003 -2.62269
rradius 112.29
rwrist 8.72351
rhand -38.6685 -21.7932
rfingers 7.12502
rthumb -11.684 -51.4474
lclavicle -2.98177e-014 3.57812e-015
lhumerus -14.8403 14.5174 13.3588
lradius 109.117
lwrist 21.7856
lhand -17.8785 -37.838
lfingers 7.12502
lthumb 8.38759 -8.02452
rfemur 9.61468 8.77763 20.5911
rtibia -7.95139e-016
rfoot -16.6093 -11.7217
rtoes -18.157
lfemur -1.59144 1.38112 -8.37355
ltibia 26.1255
lfoot -22.322 11.6935
ltoes -57.2999
468
root -0.950521 18.5995 5.4652 -2.77859 -11.6884 -4.82877
lowerback 16.147 -1.42899 1.99134
upperback 5.88424 -1.49704 3.0271
thorax -2.75476 -0.773214 2.32976
lowerneck 2.79623 -8.85775 -15.5175
upperneck 40.9936 -11.293 -2.1094
head 14.848 -7.54114 0.45659
rclavicle -2.14687e-014 -2.74323e-014
rhumerus -17.4628 -24.0641 -2.53377
rradius 112.774
rwrist 8.96519
rhand -38.9333 -22.2086
rfingers 7.12502
rthumb -11.9393 -51.8482
lclavicle -2.14687e-014 -2.74323e-014
lhumerus -14.2217 15.1002 12.6523
lradius 109.958
lwrist 21.1179
lhand -17.8468 -38.4443
lfingers 7.12502
lthumb 8.41818 -8.63203
rfemur 9.61064 8.85283 20.5732
rtibia 1.59028e-014
rfoot -16.6312 -11.7799
rtoes -18.0287
lfemur -1.54543 1.44494 -8.39151
ltibia 26.088
lfoot -22.3682 11.6326
ltoes -57.2491
